<svg xmlns="http://www.w3.org/2000/svg" xmlns:svg="http://www.w3.org/2000/svg" id="svg5" width="400" height="400" version="1.1" viewBox="0 0 105.833 105.833"><g id="layer1"><rect style="fill:#1866ac;stroke:none;stroke-width:.105833;stop-color:#000;stroke-opacity:1" id="rect7186" width="4.52" height="88.136" x="11.025" y="10.115" ry="1.372" transform="rotate(-11.109357)"/><path style="fill:#f15555;fill-opacity:1;stroke:none;stroke-width:.264583px;stroke-linecap:butt;stroke-linejoin:miter;stroke-opacity:1" id="path7602" d="M 26.27698,61.922225 C 37.044174,56.384763 40.8756,55.608338 47.384509,51.126491 56.308588,44.981627 62.182405,34.840152 71.535913,29.371109 77.759483,25.732156 84.19596,24.176421 92.032163,22.466261 99.868367,20.756099 78.222481,13.130831 70.266228,11.453734 60.360421,9.3656914 50.049007,13.567332 39.938264,13.059617 31.7335,12.64761 24.586522,5.1897379 15.581788,9.2975435 23.493317,29.597997 25.030163,44.166551 26.27698,61.922225 Z"/><rect style="fill:#3a8cd6;fill-opacity:1;stroke:none;stroke-width:.0475718;stop-color:#000;stroke-opacity:1" id="rect10111" width=".949" height="84.807" x="12.02" y="12.126" ry="1.32" transform="rotate(-11.109357)"/><path style="fill:none;stroke:#e84646;stroke-width:3;stroke-linecap:round;stroke-linejoin:miter;stroke-miterlimit:4;stroke-dasharray:none;stroke-opacity:1" id="path11125" d="m 22.824616,12.995786 c 7.420523,9.066233 11.381421,9.893942 12.822313,18.261799 -1.152726,8.004252 -3.274961,9.504505 -4.578931,22.179432"/><text xml:space="preserve" style="font-style:normal;font-variant:normal;font-weight:900;font-stretch:normal;font-size:31.3936px;line-height:1.25;font-family:'Asimov Pro';-inkscape-font-specification:'Asimov Pro, Heavy';font-variant-ligatures:normal;font-variant-caps:normal;font-variant-numeric:normal;font-variant-east-asian:normal;fill:#e84646;fill-opacity:1;stroke:none;stroke-width:.78484" id="text14375" x="4.363" y="95.917"><tspan id="tspan14373" style="font-style:normal;font-variant:normal;font-weight:900;font-stretch:normal;font-size:31.39360016px;font-family:'Asimov Pro';-inkscape-font-specification:'Asimov Pro, Heavy';font-variant-ligatures:normal;font-variant-caps:normal;font-variant-numeric:normal;font-variant-east-asian:normal;stroke-width:.78484;fill:#e84646;fill-opacity:1" x="4.363" y="95.917">redflag</tspan></text><path style="fill:none;stroke:#e84646;stroke-width:3;stroke-linecap:round;stroke-linejoin:miter;stroke-miterlimit:4;stroke-dasharray:none;stroke-opacity:1" id="path35065" d="m 36.102937,17.161762 c 12.070421,6.873997 27.317314,3.514152 23.651513,6.80253 -7.779404,6.978453 -11.871579,6.279035 -18.786654,22.127616"/></g></svg>